<svg width="56" height="68" viewBox="0 0 56 68" fill="none" xmlns="http://www.w3.org/2000/svg">
<path d="M39.2 45.3334C39.2 46.0848 38.905 46.8055 38.3799 47.3368C37.8548 47.8682 37.1426 48.1667 36.4 48.1667H30.8V53.8333C30.8 54.5848 30.505 55.3055 29.9799 55.8368C29.4548 56.3682 28.7426 56.6667 28 56.6667C27.2574 56.6667 26.5452 56.3682 26.0201 55.8368C25.495 55.3055 25.2 54.5848 25.2 53.8333V48.1667H19.6C18.8574 48.1667 18.1452 47.8682 17.6201 47.3368C17.095 46.8055 16.8 46.0848 16.8 45.3334C16.8 44.5819 17.095 43.8612 17.6201 43.3299C18.1452 42.7985 18.8574 42.5 19.6 42.5H25.2V36.8334C25.2 36.0819 25.495 35.3612 26.0201 34.8299C26.5452 34.2985 27.2574 34 28 34C28.7426 34 29.4548 34.2985 29.9799 34.8299C30.505 35.3612 30.8 36.0819 30.8 36.8334V42.5H36.4C37.1426 42.5 37.8548 42.7985 38.3799 43.3299C38.905 43.8612 39.2 44.5819 39.2 45.3334ZM55.9999 29.7075V53.8333C55.9955 57.5892 54.5191 61.1899 51.8945 63.8457C49.27 66.5015 45.7116 67.9955 42 68H14C10.2883 67.9955 6.72995 66.5015 4.10541 63.8457C1.48087 61.1899 0.004446 57.5892 0 53.8333V14.1667C0.004446 10.4109 1.48087 6.81014 4.10541 4.15435C6.72995 1.49856 10.2883 0.00456423 14 6.53045e-05H26.642C29.2169 -0.00664098 31.7676 0.50323 34.1466 1.5002C36.5256 2.49717 38.6857 3.96145 40.502 5.80839L50.2571 15.6854C52.0834 17.5221 53.5314 19.7072 54.5171 22.1141C55.5029 24.5211 56.0069 27.1021 55.9999 29.7075ZM36.5428 9.81472C35.6615 8.95101 34.6722 8.20801 33.6 7.60472V19.8334C33.6 20.5848 33.895 21.3055 34.4201 21.8368C34.9452 22.3682 35.6574 22.6667 36.4 22.6667H48.4847C47.8882 21.5821 47.1529 20.5818 46.2979 19.6917L36.5428 9.81472ZM50.3999 29.7075C50.3999 29.24 50.3103 28.7924 50.2683 28.3334H36.4C34.1721 28.3334 32.0356 27.4378 30.4603 25.8438C28.885 24.2497 28 22.0877 28 19.8334V5.79989C27.5464 5.75739 27.1012 5.66673 26.642 5.66673H14C11.7722 5.66673 9.6356 6.56226 8.06029 8.15632C6.48499 9.75037 5.59999 11.9124 5.59999 14.1667V53.8333C5.59999 56.0877 6.48499 58.2497 8.06029 59.8438C9.6356 61.4378 11.7722 62.3333 14 62.3333H42C44.2278 62.3333 46.3643 61.4378 47.9396 59.8438C49.5149 58.2497 50.3999 56.0877 50.3999 53.8333V29.7075Z" fill="#9D9D9D"/>
</svg>
