<svg width="74" height="70" viewBox="0 0 74 70" fill="none" xmlns="http://www.w3.org/2000/svg">
<path d="M58.194 1.18164H15.8061C7.642 1.18164 1 7.82364 1 15.9878C1 24.1519 7.642 30.7939 15.8061 30.7939H26.5869V42.7559L26.0605 42.3143C23.4585 40.1308 19.3869 40.3083 16.9848 42.7106C14.4677 45.2278 14.6325 49.2284 17.3697 51.5251L26.5867 59.2592V66.7129C26.5867 67.8778 27.5312 68.8223 28.6961 68.8223H54.0086C55.1735 68.8223 56.118 67.8778 56.118 66.7129V43.0097C56.118 39.8237 53.7338 37.124 50.5721 36.7301L39.243 35.3186V30.7936H58.194C66.3581 30.7936 73 24.1516 73 15.9875C73 7.82336 66.3581 1.18164 58.194 1.18164ZM30.8055 64.6035V60.3848H51.8992V64.6035H30.8055ZM50.0507 40.9165C51.1045 41.0478 51.8994 41.9477 51.8994 43.0097V56.166H29.4639L20.0814 48.2933C19.2486 47.5945 19.1981 46.4635 19.9679 45.6935C20.8325 44.8291 22.4123 44.7602 23.3488 45.546L27.3403 48.8953C28.7095 50.0439 30.8056 49.0695 30.8056 47.2794V20.3066C30.8056 19.1435 31.7519 18.1973 32.915 18.1973C34.0781 18.1973 35.0244 19.1435 35.0244 20.3066V37.1816C35.0244 38.2458 35.8171 39.1432 36.873 39.2748L50.0507 40.9165ZM58.194 26.575H39.243V20.3066C39.243 16.8173 36.4042 13.9785 32.9148 13.9785C29.4255 13.9785 26.5867 16.8173 26.5867 20.3066V26.575H15.806C9.96822 26.575 5.21875 21.8255 5.21875 15.9878C5.21875 10.15 9.96822 5.40039 15.8061 5.40039H58.194C64.0318 5.40039 68.7812 10.1499 68.7812 15.9878C68.7812 21.8257 64.0318 26.575 58.194 26.575Z" fill="#9D9D9D" stroke="#9D9D9D"/>
<path d="M56.5882 10.2371L49.6422 17.183L46.9149 14.4558C46.0912 13.632 44.7556 13.632 43.9318 14.4558C43.108 15.2796 43.108 16.6151 43.9318 17.4389L48.1506 21.6577C48.9742 22.4814 50.3099 22.4816 51.1336 21.6577L59.5711 13.2202C60.3949 12.3964 60.3949 11.0609 59.5711 10.2371C58.7475 9.41316 57.4118 9.41316 56.5882 10.2371Z" fill="#9D9D9D" stroke="#9D9D9D"/>
</svg>
