<svg width="69" height="69" viewBox="0 0 69 69" fill="none" xmlns="http://www.w3.org/2000/svg">
<path d="M22.8439 0H9.02213C6.63035 0.00292926 4.33681 0.954199 2.6458 2.6458C0.954163 4.33671 0.00281209 6.6296 0 9.02213V22.8439C0.00292945 25.2357 0.9542 27.5285 2.6458 29.2203C4.33672 30.9112 6.63035 31.8633 9.02213 31.8661H22.8439C25.2357 31.8631 27.5293 30.9111 29.2203 29.2203C30.9119 27.5286 31.8633 25.2357 31.8661 22.8439V9.02213C31.8631 6.6296 30.9119 4.33681 29.2203 2.6458C27.5294 0.954161 25.2357 0.00281209 22.8439 0ZM26.9449 22.8436C26.9449 23.9311 26.5128 24.9738 25.7439 25.7436C24.975 26.5125 23.9314 26.9446 22.8439 26.9446H9.02209C7.9346 26.9446 6.89109 26.5125 6.12208 25.7436C5.35314 24.9739 4.92109 23.9311 4.92109 22.8436V9.02175C4.92109 7.93353 5.35316 6.89075 6.12208 6.12174C6.89101 5.3528 7.93456 4.92075 9.02209 4.92075H22.8439C23.9314 4.92075 24.9749 5.35282 25.7439 6.12174C26.5129 6.89068 26.9449 7.93349 26.9449 9.02175V22.8436ZM22.8439 36.2552H9.02213C6.63035 36.2581 4.33681 37.2101 2.6458 38.901C0.954163 40.5926 0.00281209 42.8855 0 45.2773V59.0991C0.00292945 61.4916 0.9542 63.7844 2.6458 65.4754C4.33672 67.1671 6.63035 68.1184 9.02213 68.1212H22.8439C25.2357 68.1183 27.5293 67.167 29.2203 65.4754C30.9119 63.7845 31.8633 61.4916 31.8661 59.0991V45.2773C31.8631 42.8855 30.9119 40.5927 29.2203 38.901C27.5294 37.2101 25.2357 36.258 22.8439 36.2552ZM26.9449 59.0987C26.9449 60.187 26.5128 61.2297 25.7439 61.9988C24.975 62.7677 23.9314 63.1997 22.8439 63.1997H9.02209C7.9346 63.1997 6.89109 62.7677 6.12208 61.9988C5.35314 61.2298 4.92109 60.187 4.92109 59.0987V45.2769C4.92109 44.1894 5.35316 43.1467 6.12208 42.3769C6.89101 41.608 7.93456 41.1759 9.02209 41.1759H22.8439C23.9314 41.1759 24.9749 41.608 25.7439 42.3769C26.5129 43.1466 26.9449 44.1894 26.9449 45.2769V59.0987ZM59.0965 36.2552H45.2777C42.8859 36.2581 40.5924 37.2094 38.9014 38.9002C37.2097 40.5919 36.2584 42.8855 36.2556 45.2773V59.0991C36.2585 61.4916 37.2098 63.7844 38.9014 65.4762C40.5923 67.1678 42.8859 68.1192 45.2777 68.1212H59.098C61.4905 68.1183 63.7833 67.167 65.4743 65.4754C67.166 63.7845 68.1173 61.4916 68.1201 59.0991V45.2773C68.1172 42.8855 67.1659 40.5927 65.4743 38.901C63.7834 37.2101 61.4905 36.258 59.098 36.2552H59.0965ZM63.1975 59.0987C63.1975 60.187 62.7654 61.2297 61.9965 61.9988C61.2275 62.7677 60.184 63.1997 59.0965 63.1997H45.2776C44.1902 63.1997 43.1474 62.7677 42.3784 61.9988C41.6087 61.2298 41.1766 60.187 41.1766 59.0987V45.2769C41.1766 44.1894 41.6087 43.1467 42.3784 42.3769C43.1473 41.608 44.1901 41.1759 45.2776 41.1759H59.098C60.1862 41.1759 61.229 41.608 61.998 42.3769C62.7669 43.1466 63.199 44.1894 63.199 45.2769L63.1975 59.0987ZM39.2253 27.2846L40.6526 19.9029L51.6102 8.94527L59.4841 16.8191L48.5265 27.7606L41.1447 29.204C40.6108 29.3058 40.0609 29.1366 39.6764 28.7521C39.292 28.3684 39.1228 27.8184 39.2253 27.2846L39.2253 27.2846ZM62.9612 13.3413L55.0874 5.46746L57.2529 3.30196H57.2522C57.868 2.68607 58.7029 2.3397 59.5736 2.3397C60.4444 2.3397 61.2792 2.68609 61.8951 3.30196L65.1268 6.53362H65.126C65.7426 7.14875 66.0883 7.98361 66.0883 8.85434C66.0883 9.72506 65.7426 10.5606 65.126 11.1758L62.9612 13.3413Z" fill="#9D9D9D"/>
</svg>
