<svg width="53" height="71" viewBox="0 0 53 71" fill="none" xmlns="http://www.w3.org/2000/svg">
<path d="M28.177 40.0528C41.228 41.1699 51.171 51.6128 50.9978 64.0208V64.6501C50.9978 67.0525 48.9412 69 46.4042 69C43.8673 69 41.8107 67.0525 41.8107 64.6501V63.8468C41.9488 56.2284 36.0116 49.7316 28.03 48.7671C19.6048 47.976 12.0973 53.8025 11.2619 61.7809C11.2125 62.2526 11.1875 62.7262 11.1871 63.2002V64.6501C11.1871 67.0525 9.13047 69 6.59354 69C4.05661 69 2 67.0525 2 64.6501V63.2001C2.01493 50.3728 13.008 39.9859 26.5535 40C27.0951 40.0007 27.6366 40.0182 28.177 40.0528Z" fill="#9D9D9D" stroke="white" stroke-width="2.5"/>
<path d="M26.4985 35.7487C17.1791 35.7487 9.62415 28.1937 9.62415 18.8743C9.62415 9.55495 17.1791 2 26.4985 2C35.8178 2 43.3728 9.55495 43.3728 18.8743C43.3636 28.1899 35.814 35.7393 26.4985 35.7487ZM26.4985 10.4372C21.8388 10.4372 18.0613 14.2146 18.0613 18.8743C18.0613 23.534 21.8388 27.3115 26.4985 27.3115C31.1582 27.3115 34.9356 23.534 34.9356 18.8743C34.9356 14.2146 31.1582 10.4372 26.4985 10.4372Z" fill="#9D9D9D" stroke="white" stroke-width="2.5"/>
</svg>
