<svg width="36" height="47" viewBox="0 0 36 47" fill="none" xmlns="http://www.w3.org/2000/svg">
<rect x="1.32837" y="0.818726" width="32.5413" height="11.2985" rx="5.64924" stroke="white"/>
<path d="M28.5204 20.9522L19.8853 18.8908V9.23845C19.8962 8.20111 19.5397 7.19301 18.8782 6.39071C18.2167 5.58841 17.2925 5.04304 16.2673 4.8501C15.6461 4.74666 15.0098 4.77905 14.4025 4.94502C13.7953 5.11099 13.2317 5.40655 12.751 5.81112C12.2703 6.21569 11.8841 6.71956 11.6192 7.28765C11.3544 7.85574 11.2172 8.4744 11.2173 9.10056V34.0931C11.2173 34.5503 11.0346 34.9887 10.7095 35.3119C10.3844 35.6352 9.94346 35.8168 9.48368 35.8168C9.0239 35.8168 8.58295 35.6352 8.25784 35.3119C7.93272 34.9887 7.75008 34.5503 7.75008 34.0931V21.4417L2.91506 27.7157C1.49695 29.3659 0.75426 31.4856 0.834214 33.6546C0.914169 35.8236 1.81093 37.8835 3.34672 39.426L7.50737 43.6058C9.13997 45.2345 11.3559 46.1526 13.6686 46.1585H26.8197C29.1186 46.1585 31.3234 45.2505 32.9489 43.6343C34.5745 42.0181 35.4877 39.8261 35.4877 37.5404V29.4032C35.4878 27.4109 34.7937 25.4802 33.5234 23.9394C32.2531 22.3987 30.4852 21.3431 28.5204 20.9522Z" fill="white"/>
</svg>
