<svg width="37" height="29" viewBox="0 0 37 29" fill="none" xmlns="http://www.w3.org/2000/svg">
<path d="M34.5676 0.818115H1.77312C1.30293 0.818115 0.851879 0.97081 0.519582 1.24257C0.187269 1.51459 0.000244141 1.88317 0.000244141 2.2677V21.1135C0.000244141 21.498 0.187269 21.8669 0.519582 22.1386C0.851895 22.4104 1.30291 22.5633 1.77312 22.5633H10.2906L16.8405 28.5214C17.1769 28.826 17.6551 28.9999 18.1568 28.9999C18.6585 28.9999 19.1368 28.826 19.4731 28.5214L26.0496 22.5633H34.5671C35.0373 22.5633 35.4883 22.4104 35.8206 22.1386C36.1529 21.8669 36.34 21.498 36.34 21.1135V2.2677C36.34 1.88319 36.1529 1.51458 35.8206 1.24257C35.4883 0.97081 35.0373 0.818115 34.5671 0.818115H34.5676Z" fill="white"/>
</svg>
