<svg width="49" height="45" viewBox="0 0 49 45" fill="none" xmlns="http://www.w3.org/2000/svg">
<path d="M3.83333 12.6914L4.26022 13.1188L17.4574 26.3323L3.83333 12.6914ZM3.83333 12.6914V13.2955M3.83333 12.6914V13.2955M3.83333 13.2955V34.7727C3.83333 36.4663 4.50487 38.0907 5.70036 39.2884C6.89587 40.4861 8.51743 41.1591 10.2083 41.1591H38.7917C40.4826 41.1591 42.1041 40.4861 43.2996 39.2884C44.4951 38.0907 45.1667 36.4663 45.1667 34.7727V13.2955V12.6914M3.83333 13.2955L45.1667 12.6914M45.1667 12.6914L44.7398 13.1188M45.1667 12.6914L44.7398 13.1188M44.7398 13.1188L31.5426 26.3323L44.7398 13.1188ZM10.2083 3.84091L10.2078 3.84091C8.93532 3.84342 7.6927 4.22738 6.63989 4.94333C5.58709 5.65927 4.77229 6.67442 4.30028 7.85808L4.23936 8.01086L4.35555 8.12728L19.9906 23.7934L19.991 23.7938C21.1884 24.9886 22.8097 25.6596 24.5 25.6596C26.1903 25.6596 27.8116 24.9886 29.009 23.7938L29.0094 23.7934L44.6445 8.12728L44.7606 8.01086L44.6997 7.85808C44.2277 6.67442 43.4129 5.65927 42.3601 4.94333C41.3073 4.22738 40.0647 3.84342 38.7922 3.84091H38.7917L10.2083 3.84091ZM10.2085 0.25H38.7915C41.4315 0.253207 43.9626 1.30531 45.8295 3.1757C47.6965 5.04613 48.7468 7.58218 48.75 10.2276V34.7724C48.7468 37.4178 47.6965 39.9539 45.8295 41.8243C43.9626 43.6947 41.4314 44.7468 38.7914 44.75H10.2086C7.56856 44.7468 5.03743 43.6947 3.17047 41.8243C1.30354 39.9539 0.253202 37.4179 0.25 34.7726V10.2274C0.253202 7.58208 1.30354 5.0461 3.17047 3.1757C5.0374 1.30531 7.56847 0.253207 10.2085 0.25ZM24.5 29.2496C21.8597 29.2496 19.3271 28.2006 17.4576 26.3324H31.5424C29.6729 28.2006 27.1403 29.2496 24.5 29.2496Z" fill="#7D7C81" stroke="white" stroke-width="0.5"/>
</svg>
