<svg width="42" height="42" viewBox="0 0 42 42" fill="none" xmlns="http://www.w3.org/2000/svg">
<path d="M40.4136 29.3442C41.4295 30.3629 42 31.7427 42 33.1813C42 34.6199 41.4295 35.9997 40.4136 37.0184L38.8184 38.8571C24.4613 52.6015 -10.4761 17.6753 3.05711 3.27367L5.07306 1.52079C6.0929 0.533356 7.46053 -0.0128906 8.88007 0.000231046C10.2996 0.0133527 11.6569 0.584787 12.6583 1.59091C12.7127 1.64525 15.961 5.86443 15.961 5.86443C16.9248 6.87694 17.4614 8.22193 17.4591 9.6198C17.4568 11.0177 16.9159 12.3609 15.9487 13.3703L13.9187 15.9225C15.0421 18.6519 16.6938 21.1324 18.7789 23.2216C20.864 25.3108 23.3414 26.9674 26.0688 28.0962L28.6369 26.0541C29.6465 25.0878 30.9896 24.5475 32.3871 24.5455C33.7847 24.5436 35.1293 25.0801 36.1416 26.0436C36.1416 26.0436 40.3593 29.2899 40.4136 29.3442ZM38.0015 31.8929C38.0015 31.8929 33.8066 28.6659 33.7522 28.6115C33.3911 28.2535 32.9031 28.0526 32.3945 28.0526C31.8859 28.0526 31.398 28.2535 31.0368 28.6115C30.9895 28.6606 27.4537 31.4775 27.4537 31.4775C27.2154 31.6671 26.9318 31.7915 26.6309 31.8382C26.33 31.8849 26.022 31.8524 25.7375 31.7439C22.2042 30.4285 18.995 28.3692 16.3271 25.7054C13.6592 23.0416 11.5949 19.8356 10.2742 16.3046C10.1571 16.0161 10.1189 15.7017 10.1636 15.3937C10.2083 15.0856 10.3342 14.795 10.5284 14.5517C10.5284 14.5517 13.3455 11.0144 13.3928 10.9688C13.7509 10.6077 13.9518 10.1197 13.9518 9.61121C13.9518 9.10267 13.7509 8.61472 13.3928 8.2536C13.3385 8.20102 10.1112 4.00287 10.1112 4.00287C9.74464 3.67422 9.26625 3.49821 8.77409 3.51092C8.28192 3.52363 7.81326 3.7241 7.46416 4.07123L5.4482 5.82411C-4.44225 17.7156 25.8339 46.3104 36.2555 36.4627L37.8525 34.6222C38.2267 34.2756 38.4515 33.797 38.4793 33.2877C38.5071 32.7784 38.3358 32.2782 38.0015 31.8929Z" fill="#7D7C81"/>
</svg>
