<svg width="36" height="26" viewBox="0 0 36 26" fill="none" xmlns="http://www.w3.org/2000/svg">
<path d="M18.0009 0C15.3227 0 12.6401 1.0194 10.5967 3.06644C8.86259 4.80368 7.86369 7.00019 7.60117 9.26484C3.33655 9.65272 0.000488281 13.2396 0.000488281 17.613C0.000488281 22.2449 3.74888 26 8.3726 26H28.8843C32.8268 26 36.0005 22.8203 36.0005 18.8711C36.0005 14.9215 32.8265 11.7422 28.8843 11.7422H28.3873C28.7561 8.65813 27.7542 5.43346 25.3917 3.06681C23.3483 1.01978 20.6789 0.000374216 18.0007 0.000374216L18.0009 0ZM18.0009 8.8064C18.4634 8.8064 18.838 9.18199 18.838 9.64503V18.6611L22.043 15.7389C22.368 15.4417 22.9225 15.4791 23.2335 15.7913C23.5558 16.1148 23.4957 16.6893 23.1681 16.9839L18.5632 21.1774C18.379 21.3462 18.2228 21.3877 18.0009 21.3871C17.7769 21.383 17.5579 21.2874 17.4385 21.1774L12.8337 16.9839C12.4897 16.6837 12.4731 16.1181 12.7683 15.7913C13.0638 15.4645 13.6337 15.4417 13.9588 15.7389L17.1637 18.6611V9.64503C17.1637 9.18168 17.5383 8.8064 18.0008 8.8064H18.0009Z" fill="white"/>
</svg>
