<svg width="70" height="50" viewBox="0 0 70 50" fill="none" xmlns="http://www.w3.org/2000/svg">
<path d="M60.2708 0.539199C59.5628 0.593013 58.9275 0.994619 58.5747 1.61048L37.5021 38.1074H37.5016C37.2963 38.4746 37.2032 38.8936 37.234 39.3132L37.7253 47.0369L37.7248 47.0364C37.7717 47.75 38.1703 48.3928 38.7887 48.7515C39.407 49.1097 40.1633 49.1366 40.8056 48.8222L47.7481 45.3847C48.1223 45.1953 48.4327 44.9003 48.641 44.5366L69.7136 8.03972C69.9971 7.54792 70.0738 6.96395 69.9273 6.41591C69.7808 5.8678 69.4231 5.39993 68.9323 5.11545L61.4991 0.829251H61.4986C61.1279 0.611509 60.7003 0.510356 60.2708 0.53926V0.539199ZM61.2305 5.60669L64.9362 7.74979L45.2693 41.8358L41.7868 43.5549L41.5412 39.7152L61.2305 5.60669ZM2.1431 44.7606C0.959708 44.7606 0 45.7198 0 46.9037C0 48.0871 0.95967 49.0468 2.1431 49.0468H33.5734C34.7568 49.0468 35.7165 48.0871 35.7165 46.9037C35.7165 45.7203 34.7568 44.7606 33.5734 44.7606H2.1431Z" fill="white"/>
</svg>
