<svg width="80" height="80" viewBox="0 0 80 80" fill="none" xmlns="http://www.w3.org/2000/svg">
<path d="M57.4239 31.3282L56.5679 31.7679C51.4558 34.5201 46.3437 37.24 41.2566 40C40.89 40.2427 40.4603 40.3716 40.0206 40.3716C39.5808 40.3716 39.1512 40.2427 38.7845 40C33.6567 37.1757 28.4966 34.4002 23.3361 31.6563C23.0883 31.5202 22.8238 31.4242 22.5359 31.3042L22.4561 31.4482L33.1758 39.8321L24.3756 48.9202L24.4716 49.0402C24.6558 48.9202 24.8555 48.8164 25.0319 48.6881C28.2718 46.3761 31.5195 44.0721 34.7438 41.7361C35.0881 41.4141 35.6232 41.4141 35.9681 41.7361C37.0803 42.5363 38.2482 43.1998 39.3598 43.9598C39.7398 44.2929 40.3079 44.2929 40.6879 43.9598C41.8241 43.1596 43.016 42.48 44.1438 41.6881C44.4685 41.3784 44.9791 41.3784 45.3039 41.6881C48.5756 44.0882 51.8641 46.3839 55.1437 48.7282C55.3596 48.88 55.5834 49.0161 55.8077 49.1679L55.8719 49.0719L46.8396 39.8399L57.5275 31.4962L57.4239 31.3282Z" fill="#34CFB2"/>
<path d="M40 0C29.3912 0 19.2173 4.21426 11.7159 11.7159C4.21425 19.217 0 29.3915 0 40C0 50.6085 4.21425 60.7827 11.7159 68.2841C19.217 75.7857 29.3915 80 40 80C50.6085 80 60.7827 75.7857 68.2841 68.2841C75.7857 60.783 80 50.6085 80 40C80 29.3915 75.7857 19.2173 68.2841 11.7159C60.783 4.21426 50.6085 0 40 0ZM59.9999 48.7197C59.9519 49.0478 59.8877 49.3837 59.8637 49.7118C59.7705 50.7794 59.2895 51.7765 58.511 52.5131C57.7326 53.2503 56.7113 53.6766 55.6399 53.7117H24.3601C23.2452 53.6827 22.1844 53.224 21.3997 52.4305C20.615 51.637 20.1681 50.5711 20.152 49.4557C20.152 48.5277 20.0482 47.5997 20.0002 46.6717V33.2561C20.0002 32.8961 20.0961 32.5362 20.1123 32.1841C20.0967 31.3521 20.1447 30.5205 20.2563 29.6958C20.4979 28.7187 21.0588 27.8498 21.85 27.2265C22.6413 26.6038 23.6173 26.2623 24.624 26.2561H55.3923C56.5491 26.2505 57.6625 26.6936 58.4989 27.4916C59.3359 28.2896 59.8309 29.3806 59.8806 30.5362C59.8806 30.8163 59.9604 31.0964 60.0006 31.376L59.9999 48.7197Z" fill="#34CFB2"/>
</svg>
