<svg width="42" height="56" viewBox="0 0 42 56" fill="none" xmlns="http://www.w3.org/2000/svg">
<path d="M37.3333 7.05133C37.3333 7.03267 37.3333 7.01867 37.3333 7V2.33333C37.3333 1.71449 37.0875 1.121 36.6499 0.683417C36.2123 0.245833 35.6188 0 35 0C34.3812 0 33.7877 0.245833 33.3501 0.683417C32.9125 1.121 32.6667 1.71449 32.6667 2.33333V4.9C31.8987 4.74406 31.117 4.66588 30.3333 4.66667H28V2.33333C28 1.71449 27.7542 1.121 27.3166 0.683417C26.879 0.245833 26.2855 0 25.6667 0C25.0478 0 24.4543 0.245833 24.0168 0.683417C23.5792 1.121 23.3333 1.71449 23.3333 2.33333V4.66667H18.6667V2.33333C18.6667 1.71449 18.4208 1.121 17.9832 0.683417C17.5457 0.245833 16.9522 0 16.3333 0C15.7145 0 15.121 0.245833 14.6834 0.683417C14.2458 1.121 14 1.71449 14 2.33333V4.66667H11.6667C10.883 4.66588 10.1013 4.74406 9.33333 4.9V2.33333C9.33333 1.71449 9.0875 1.121 8.64991 0.683417C8.21233 0.245833 7.61884 0 7 0C6.38116 0 5.78767 0.245833 5.35008 0.683417C4.9125 1.121 4.66667 1.71449 4.66667 2.33333V7V7.05133C3.22183 8.1302 2.04796 9.53059 1.23799 11.1416C0.428009 12.7527 0.00416343 14.5301 0 16.3333V44.3333C0.003705 47.4264 1.23406 50.3917 3.42118 52.5788C5.6083 54.7659 8.57361 55.9963 11.6667 56H30.3333C33.4264 55.9963 36.3917 54.7659 38.5788 52.5788C40.7659 50.3917 41.9963 47.4264 42 44.3333V16.3333C41.9958 14.5301 41.572 12.7527 40.762 11.1416C39.952 9.53059 38.7782 8.1302 37.3333 7.05133ZM37.3333 44.3333C37.3333 46.1898 36.5958 47.9703 35.2831 49.2831C33.9703 50.5958 32.1898 51.3333 30.3333 51.3333H11.6667C9.81015 51.3333 8.02967 50.5958 6.71692 49.2831C5.40416 47.9703 4.66667 46.1898 4.66667 44.3333V16.3333C4.66667 14.4768 5.40416 12.6963 6.71692 11.3836C8.02967 10.0708 9.81015 9.33333 11.6667 9.33333H30.3333C32.1898 9.33333 33.9703 10.0708 35.2831 11.3836C36.5958 12.6963 37.3333 14.4768 37.3333 16.3333V44.3333ZM32.6667 18.6667C32.6667 19.2855 32.4208 19.879 31.9832 20.3166C31.5457 20.7542 30.9522 21 30.3333 21H11.6667C11.0478 21 10.4543 20.7542 10.0168 20.3166C9.57917 19.879 9.33333 19.2855 9.33333 18.6667C9.33333 18.0478 9.57917 17.4543 10.0168 17.0168C10.4543 16.5792 11.0478 16.3333 11.6667 16.3333H30.3333C30.9522 16.3333 31.5457 16.5792 31.9832 17.0168C32.4208 17.4543 32.6667 18.0478 32.6667 18.6667ZM32.6667 28C32.6667 28.6188 32.4208 29.2123 31.9832 29.6499C31.5457 30.0875 30.9522 30.3333 30.3333 30.3333H11.6667C11.0478 30.3333 10.4543 30.0875 10.0168 29.6499C9.57917 29.2123 9.33333 28.6188 9.33333 28C9.33333 27.3812 9.57917 26.7877 10.0168 26.3501C10.4543 25.9125 11.0478 25.6667 11.6667 25.6667H30.3333C30.9522 25.6667 31.5457 25.9125 31.9832 26.3501C32.4208 26.7877 32.6667 27.3812 32.6667 28ZM23.3333 37.3333C23.3333 37.9522 23.0875 38.5457 22.6499 38.9832C22.2123 39.4208 21.6188 39.6667 21 39.6667H11.6667C11.0478 39.6667 10.4543 39.4208 10.0168 38.9832C9.57917 38.5457 9.33333 37.9522 9.33333 37.3333C9.33333 36.7145 9.57917 36.121 10.0168 35.6834C10.4543 35.2458 11.0478 35 11.6667 35H21C21.6188 35 22.2123 35.2458 22.6499 35.6834C23.0875 36.121 23.3333 36.7145 23.3333 37.3333Z" fill="white"/>
</svg>
