<svg width="42" height="45" viewBox="0 0 42 45" fill="none" xmlns="http://www.w3.org/2000/svg">
<path d="M41.5402 0.69957C41.2906 0.267 40.8285 0 40.3284 0H1.39904C0.898982 0 0.437231 0.266622 0.187243 0.69957C-0.0624144 1.13214 -0.0624144 1.66572 0.187243 2.09829L13.4712 25.1061L13.4715 43.369C13.4715 43.8561 13.7245 44.3082 14.1405 44.5624C14.364 44.6995 14.6173 44.7678 14.871 44.7678C15.089 44.7678 15.3069 44.7169 15.5075 44.6147L27.4943 38.4909C27.9626 38.2519 28.2569 37.7706 28.2569 37.2452V25.1064L41.5408 2.09864C41.7909 1.66607 41.7909 1.13249 41.5405 0.699919L41.5402 0.69957ZM25.646 24.0321C25.5228 24.2445 25.4586 24.4857 25.4586 24.7317V36.389L16.2695 41.0835V24.7314C16.2695 24.4858 16.2046 24.245 16.0822 24.0318L3.82257 2.79794H37.9061L25.646 24.0321Z" fill="#859CA6"/>
</svg>
