<svg width="70" height="70" viewBox="0 0 70 70" fill="none" xmlns="http://www.w3.org/2000/svg">
<path d="M62 54.4927V54.4936C61.9974 56.4842 61.2053 58.3925 59.7975 59.8C58.3897 61.2076 56.481 61.9994 54.4901 62.002H54.4892H15.5108H15.5099C13.519 61.9994 11.6103 61.2076 10.2025 59.8C8.79466 58.3925 8.00258 56.4842 8 54.4936L8 54.4927L8 28.6718V28.6714H8.75C8.74936 27.5648 9.02057 26.475 9.53982 25.4978C10.0591 24.5205 10.8104 23.6858 11.7279 23.0668L62 54.4927ZM62 54.4927V28.6714V28.6698C61.9975 27.4417 61.6932 26.2329 61.114 25.1499C60.5349 24.0671 59.6988 23.1432 58.6791 22.4591L62 54.4927ZM62.7438 16.4393L62.7446 16.4399C64.7493 17.7887 66.3913 19.6098 67.5257 21.7428C68.6602 23.8757 69.2523 26.2549 69.25 28.6706V28.6714V54.4918C69.2456 58.4045 67.689 62.1557 64.9216 64.9225C62.1542 67.6893 58.4021 69.2456 54.4883 69.25H15.5117C11.5979 69.2456 7.84579 67.6893 5.07841 64.9225C2.31113 62.1558 0.754524 58.4048 0.750006 54.4922L0.750006 28.6714L0.750005 28.6707C0.747923 26.2546 1.34019 23.875 2.47465 21.7416C3.60911 19.6082 5.25094 17.7864 7.25553 16.4368L7.2561 16.4364L26.7424 3.29107L26.7445 3.28962C29.1794 1.63483 32.0557 0.75 35 0.75C37.9443 0.75 40.8206 1.63483 43.2555 3.28963L43.2576 3.29102L62.7438 16.4393Z" fill="#31D5B2" stroke="white" stroke-width="1.5"/>
</svg>
