<svg width="47" height="57" viewBox="0 0 47 57" fill="none" xmlns="http://www.w3.org/2000/svg">
<path d="M37.7608 36.9452L30.9257 45.1073L26.5586 41.5865C26.1338 41.2424 25.5114 41.3141 25.1725 41.7465C24.8333 42.1777 24.9041 42.8077 25.3304 43.1511L30.4449 47.2756C30.6258 47.4226 30.8428 47.4932 31.0593 47.4932C31.3395 47.4932 31.617 47.3723 31.8123 47.1406L39.2653 38.2392C39.617 37.8176 39.567 37.1872 39.151 36.83C38.7345 36.4721 38.1129 36.524 37.7608 36.9452ZM35.7565 28.5683V11.4713C35.7565 11.2073 35.6539 10.9549 35.4699 10.7669L26.2053 1.29579C26.0205 1.10665 25.7684 1 25.5053 1H1.98665C1.44147 1 1 1.4481 1 1.99981V47.8322C1 48.3842 1.44144 48.8324 1.98665 48.8324H20.2057C22.5632 53.1024 27.0662 56 32.2286 56C39.8228 56 46 49.7393 46 42.0438C46 35.5855 41.6431 30.1531 35.7555 28.5689L35.7565 28.5683ZM26.4919 4.42938L32.4018 10.4715H26.4919V4.42938ZM19.3096 46.8321H2.97375V2.99939H24.5181V11.4711C24.5181 12.0232 24.9603 12.4709 25.5048 12.4709H33.7827V28.1812C33.2716 28.1228 32.7549 28.086 32.2298 28.086C24.6356 28.086 18.4564 34.3471 18.4564 42.0431C18.4572 43.7277 18.7675 45.3362 19.3096 46.8321ZM32.23 54.0001C25.7239 54.0001 20.431 48.6368 20.431 42.0436C20.431 35.4506 25.7241 30.0861 32.23 30.0861C38.7366 30.0861 44.0281 35.4502 44.0281 42.0436C44.0281 48.637 38.7354 54.0001 32.23 54.0001Z" fill="#3C3C3C" stroke="#3C3C3C"/>
</svg>
