<svg width="45" height="57" viewBox="0 0 45 57" fill="none" xmlns="http://www.w3.org/2000/svg">
<path d="M45 57L45 0L11.7634 -2.90563e-06L0.0976984 11.6657L0.0976944 57L45 57ZM41.6602 53.6602L3.43754 53.6602L3.43754 14.7324L14.8302 14.7324L14.8302 3.33984L41.6603 3.33984L41.6603 53.6602L41.6602 53.6602ZM5.09422 11.3925L11.4903 4.9964L11.4903 11.3925L5.09422 11.3925Z" fill="#3C3C3C"/>
<path d="M29.6738 46.7949L15.4238 46.7949L15.4238 43.4551L29.6738 43.4551L29.6738 46.7949Z" fill="#3C3C3C"/>
<path d="M36.2051 38.4824L8.89262 38.4824L8.89262 35.1426L36.2051 35.1426L36.2051 38.4824Z" fill="#3C3C3C"/>
<path d="M36.2051 31.3574L8.89262 31.3574L8.89262 28.0176L36.2051 28.0176L36.2051 31.3574Z" fill="#3C3C3C"/>
<path d="M36.2051 24.2324L8.89262 24.2324L8.89262 20.8926L36.2051 20.8926L36.2051 24.2324Z" fill="#3C3C3C"/>
<path d="M36.2051 14.7324L32.6984 14.7324L32.6984 11.3926L36.2051 11.3926L36.2051 14.7324Z" fill="#3C3C3C"/>
<path d="M29.3584 14.7324L22.5487 14.7324L22.5487 11.3926L29.3584 11.3926L29.3584 14.7324Z" fill="#3C3C3C"/>
</svg>
