<svg width="60" height="61" viewBox="0 0 60 61" fill="none" xmlns="http://www.w3.org/2000/svg">
<path d="M58.1224 29.3226H34.373C33.338 29.3226 32.498 28.4827 32.498 27.4477C32.498 26.4127 33.338 25.5728 34.373 25.5728H58.1224C59.1574 25.5728 59.9973 26.4127 59.9973 27.4477C59.9973 28.4827 59.1574 29.3226 58.1224 29.3226Z" fill="#3C3C3C"/>
<path d="M48.7495 38.6974C48.2693 38.6974 47.7896 38.5147 47.4243 38.1476C46.6919 37.4148 46.6919 36.2273 47.4243 35.4949L55.4743 27.4454L47.4243 19.3954C46.6919 18.663 46.6919 17.4756 47.4243 16.7432C48.1572 16.0104 49.3446 16.0104 50.077 16.7432L59.4517 26.118C60.1841 26.8504 60.1841 28.0378 59.4517 28.7702L50.077 38.1449C49.7094 38.5147 49.2297 38.6974 48.7495 38.6974Z" fill="#3C3C3C"/>
<path d="M19.9995 60.1973C19.4644 60.1973 18.9568 60.1223 18.4496 59.9648L3.40474 54.9524C1.35768 54.2374 0 52.33 0 50.1978V5.19921C0 2.44173 2.24251 0.199219 5 0.199219C5.53465 0.199219 6.04229 0.27429 6.54994 0.431755L21.5943 5.44411C23.6418 6.15912 24.9991 8.06656 24.9991 10.1988V55.1973C24.9991 57.9548 22.757 60.1973 19.9995 60.1973ZM5 3.9491C4.31246 3.9491 3.74988 4.51168 3.74988 5.19921V50.1978C3.74988 50.7302 4.10738 51.225 4.61732 51.4026L19.5917 56.3925C19.6992 56.4273 19.8393 56.4475 19.9995 56.4475C20.6871 56.4475 21.2492 55.8849 21.2492 55.1973V10.1988C21.2492 9.66639 20.8917 9.17156 20.3817 8.99396L5.40739 4.00403C5.29982 3.96924 5.15975 3.9491 5 3.9491Z" fill="#3C3C3C"/>
<path d="M38.1236 20.1987C37.0886 20.1987 36.2487 19.3588 36.2487 18.3238V7.07416C36.2487 5.35165 34.8466 3.9491 33.1241 3.9491H4.99994C3.96497 3.9491 3.125 3.10913 3.125 2.07416C3.125 1.03919 3.96497 0.199219 4.99994 0.199219H33.1241C36.9165 0.199219 39.9985 3.2817 39.9985 7.07416V18.3238C39.9985 19.3588 39.1586 20.1987 38.1236 20.1987Z" fill="#3C3C3C"/>
<path d="M33.1249 52.6968H23.1249C22.09 52.6968 21.25 51.8568 21.25 50.8219C21.25 49.7869 22.09 48.9469 23.1249 48.9469H33.1249C34.8474 48.9469 36.2495 47.5444 36.2495 45.8219V34.5722C36.2495 33.5372 37.0895 32.6973 38.1245 32.6973C39.1594 32.6973 39.9994 33.5372 39.9994 34.5722V45.8219C39.9994 49.6143 36.9174 52.6968 33.1249 52.6968Z" fill="#3C3C3C"/>
</svg>
