<svg width="58" height="58" viewBox="0 0 58 58" fill="none" xmlns="http://www.w3.org/2000/svg">
<path d="M32.4597 29.4037L32.4592 29.4041C31.3517 30.2699 30.7614 31.0256 30.4585 31.8494C30.1592 32.6631 30.1518 33.5179 30.1518 34.5368C30.1518 34.8693 30.0653 35.1953 29.794 35.443C29.5178 35.6951 29.0076 35.9057 28.0722 35.9057C27.2812 35.9057 26.8368 35.7585 26.5705 35.442C26.2921 35.1111 26.1505 34.5318 26.1505 33.5102C26.1505 31.8512 26.5164 30.639 27.0135 29.7254C27.5111 28.8106 28.1472 28.1822 28.7086 27.6981C28.9402 27.5017 29.1994 27.3027 29.4753 27.0908C29.5807 27.0099 29.6886 26.9271 29.7983 26.8418C30.1907 26.5368 30.599 26.206 30.968 25.8396C31.7052 25.1075 32.3104 24.2081 32.3104 23.0462C32.3104 22.0539 31.8735 21.3067 31.1661 20.8169C30.4694 20.3346 29.5256 20.1111 28.5065 20.1111C27.4676 20.1111 26.7231 20.3074 26.16 20.6171C25.5965 20.927 25.2351 21.3395 24.948 21.7343C24.859 21.8566 24.7727 21.9838 24.6914 22.1036C24.6456 22.1711 24.6015 22.2362 24.5593 22.2967C24.4375 22.4717 24.3226 22.6238 24.1973 22.7508C23.9577 22.9936 23.6745 23.1515 23.2154 23.1515C22.733 23.1515 22.1977 22.9896 21.7879 22.6591C21.3849 22.3341 21.0962 21.8416 21.0962 21.1508C21.0962 19.1991 23.3856 16.1096 28.625 16.1096C33.5987 16.1096 36.7857 18.8525 36.7857 22.375C36.7857 24.1539 35.9811 25.6997 35.0275 26.9146C34.0748 28.1285 32.9892 28.9919 32.4597 29.4037Z" fill="#3C3C3C" stroke="white" stroke-width="0.5"/>
<path d="M25.3604 41.9208C25.3604 40.3962 26.5953 39.1304 28.1113 39.1304C29.6317 39.1304 30.9017 40.4005 30.9017 41.9208C30.9017 43.406 29.6669 44.7113 28.1113 44.7113C26.5599 44.7113 25.3604 43.4102 25.3604 41.9208Z" fill="#3C3C3C" stroke="white" stroke-width="0.5"/>
<path d="M53.7188 53.4688V53.7188H53.4688H29C15.3369 53.7188 4.28125 42.6612 4.28125 29C4.28125 15.3369 15.3388 4.28125 29 4.28125C42.6631 4.28125 53.7188 15.3388 53.7188 29V53.4688ZM57.75 29C57.75 13.1084 44.8894 0.25 29 0.25C13.1084 0.25 0.25 13.1106 0.25 29C0.25 44.8916 13.1107 57.75 29 57.75H55.7344C56.8476 57.75 57.75 56.8476 57.75 55.7344V29Z" fill="#3C3C3C" stroke="white" stroke-width="0.5"/>
</svg>
