<svg width="50" height="50" viewBox="0 0 50 50" fill="none" xmlns="http://www.w3.org/2000/svg">
<path d="M16.6672 10.0002C14.3688 10.0002 12.5005 11.8685 12.5005 14.1669H15.8338C15.8338 13.7086 16.2088 13.3336 16.6672 13.3336C17.1255 13.3336 17.5005 13.7086 17.5187 14.0386C17.4503 14.2119 17.057 14.6286 16.7955 14.9035C16.0388 15.7019 15.0005 16.7967 15.0005 18.3336H18.3338C18.3338 18.1253 18.9506 17.4735 19.2136 17.1952C19.9353 16.4352 20.8338 15.4887 20.8338 14.1669C20.8338 11.8686 18.9655 10.0003 16.6671 10.0003L16.6672 10.0002Z" fill="#3C3C3C"/>
<path d="M15 20H18.3333V23.3333H15V20Z" fill="#3C3C3C"/>
<path d="M31.6665 31.6665H34.9998V39.9998H31.6665V31.6665Z" fill="#3C3C3C"/>
<path d="M31.6665 26.6667H34.9998V30.0001H31.6665V26.6667Z" fill="#3C3C3C"/>
<path d="M50 33.3333C50 24.1432 42.5234 16.6667 33.3333 16.6667C33.3333 7.47657 25.8568 0 16.6667 0C7.47657 0 0 7.47657 0 16.6667C0 20.5067 1.28495 24.1399 3.65324 27.0762L0 30.0379V33.333H16.6667C16.6667 42.523 24.1432 49.9996 33.3333 49.9996H50V46.7046L46.3501 43.7463C48.715 40.7995 50 37.1649 50 33.333V33.3333ZM16.6667 30H5.3419L8.55838 27.3951L7.24181 26.0867C4.7221 23.58 3.33371 20.2366 3.33371 16.6667C3.33371 9.31514 9.31552 3.33333 16.667 3.33333C24.0186 3.33333 30.0004 9.31514 30.0004 16.6667C30.0004 16.785 29.9937 16.8917 29.9903 17.0034C23.4788 18.3367 18.337 23.4784 17.0037 29.99C16.8921 29.9934 16.7853 30.0001 16.667 30.0001L16.6667 30ZM33.3333 46.6667C25.9818 46.6667 20 40.6849 20 33.3333C20 25.9818 25.9818 20 33.3333 20C40.6849 20 46.6667 25.9818 46.6667 33.3333C46.6667 36.8951 45.2801 40.2433 42.7615 42.7615L41.4531 44.0699L44.6585 46.6667H33.3333Z" fill="#3C3C3C"/>
</svg>
