<svg width="60" height="58" viewBox="0 0 60 58" fill="none" xmlns="http://www.w3.org/2000/svg">
<path d="M13.4293 57.4993C12.7719 57.4993 12.1191 57.2943 11.562 56.8914C10.5242 56.1393 10.0394 54.8465 10.3219 53.5991L14.1819 36.5959L1.09131 25.1158C0.129068 24.2758 -0.238526 22.9455 0.156535 21.7283C0.551595 20.5134 1.62645 19.6532 2.89907 19.5356L20.2195 17.9631L27.0673 1.93776C27.5722 0.760365 28.7222 0 29.9998 0C31.2775 0 32.4274 0.760365 32.9323 1.93502L39.7802 17.9631L57.0978 19.5356C58.3732 19.6505 59.4481 20.5134 59.8431 21.7283C60.2382 22.9432 59.8729 24.2758 58.9106 25.1158L45.8201 36.5937L49.6801 53.5963C49.963 54.8465 49.4777 56.1393 48.4404 56.8891C47.4054 57.639 46.0252 57.6966 44.9352 57.0416L29.9998 48.1163L15.0644 57.0466C14.5595 57.3464 13.9969 57.4993 13.4293 57.4993ZM29.9998 44.2715C30.5675 44.2715 31.1296 44.4239 31.635 44.7237L45.7304 53.1541L42.0874 37.1059C41.8274 35.9638 42.2151 34.7712 43.0977 33.9985L55.4581 23.1584L39.105 21.6734C37.9276 21.5658 36.915 20.8256 36.4549 19.7407L29.9998 4.61758L23.537 19.7429C23.0819 20.8205 22.0693 21.5608 20.8947 21.6683L4.53928 23.1534L16.8992 33.9935C17.7845 34.7685 18.1718 35.9587 17.9095 37.1036L14.2693 53.1514L28.3647 44.7237C28.8696 44.4239 29.4322 44.2715 29.9998 44.2715ZM20.0872 18.273C20.0872 18.273 20.0872 18.2758 20.0844 18.2781L20.0872 18.273ZM39.9075 18.2657L39.9102 18.2707C39.9102 18.268 39.9102 18.268 39.9075 18.2657Z" fill="#3C3C3C"/>
</svg>
