<svg width="53" height="53" viewBox="0 0 53 53" fill="none" xmlns="http://www.w3.org/2000/svg">
<path d="M1.19974 47.152C0.947702 48.0174 1.01528 48.9448 1.39015 49.7645C1.76541 50.5846 2.42287 51.2422 3.243 51.6174C4.0627 51.9922 4.99012 52.0598 5.85554 51.8078L13.498 49.5908C19.0792 52.7337 25.6101 53.7485 31.8809 52.4478C38.1518 51.1471 43.7407 47.6191 47.6119 42.5157C51.483 37.4126 53.3748 31.0802 52.9375 24.6903C52.4999 18.3002 49.7629 12.2841 45.2323 7.75649C40.7017 3.22873 34.6853 0.494988 28.2944 0.0608551C21.9038 -0.372841 15.5727 1.52252 10.4721 5.39644C5.37113 9.27067 1.84626 14.8611 0.549156 21.1335C-0.747953 27.4061 0.27049 33.9357 3.41651 39.5155L1.19974 47.152ZM9.78226 9.77338C13.9778 5.57676 19.5971 3.11046 25.5265 2.86439C31.4556 2.61793 37.2601 4.60948 41.7897 8.44361C46.3187 12.2777 49.2409 17.6745 49.9762 23.563C50.7121 29.451 49.207 35.4004 45.7605 40.2312C42.314 45.0615 37.1771 48.4198 31.3698 49.6398C25.5628 50.8593 19.5089 49.8516 14.4105 46.8162C14.0674 46.6107 13.6536 46.559 13.2704 46.6735L5.05839 49.0729C4.7352 49.1767 4.38102 49.0912 4.14091 48.8507C3.90041 48.6106 3.81495 48.2564 3.9187 47.9332L6.30663 39.7096C6.42112 39.3264 6.36944 38.913 6.16393 38.5699C3.47629 34.0517 2.37233 28.7662 3.02791 23.5503C3.68342 18.3344 6.06063 13.4862 9.78303 9.77323L9.78226 9.77338Z" fill="black"/>
<path d="M26.0818 42.7294C28.0901 43.4823 30.2725 43.6417 32.369 43.1893C34.4659 42.7365 36.388 41.6906 37.9069 40.1761L39.2461 38.8369C40.0643 38.0184 40.4356 36.8545 40.242 35.7132C40.0484 34.5723 39.3141 33.5955 38.2719 33.0927L31.1824 29.6732C30.6271 29.4052 29.9625 29.5249 29.5351 29.9697L27.3296 32.2491H27.2727C24.3061 31.07 21.9547 28.7227 20.7704 25.7579L23.0498 23.4786C23.4763 23.0501 23.586 22.3989 23.3233 21.8543L19.9037 14.7649H19.9041C19.4012 13.7226 18.4245 12.9883 17.2832 12.7948C16.1423 12.6012 14.978 12.9721 14.1595 13.7906L12.8318 15.1012C11.3188 16.6186 10.2729 18.5382 9.8182 20.6324C9.36383 22.7265 9.51966 24.907 10.267 26.9152C11.6182 30.5291 13.7291 33.8111 16.4572 36.5392C19.1855 39.2675 22.4674 41.3787 26.0816 42.7295L26.0818 42.7294ZM14.855 17.124L16.1942 15.7848C16.36 15.6294 16.5898 15.561 16.814 15.6C17.0382 15.6393 17.2306 15.7816 17.3339 15.9844L20.3317 22.1679L18.6505 23.849C18.2939 24.212 18.0506 24.6707 17.9496 25.1692C17.8483 25.6681 17.894 26.1853 18.0804 26.6584C19.5302 30.409 22.4739 33.3881 26.207 34.882L26.3723 34.9448C26.8664 35.1424 27.4079 35.1877 27.9278 35.0752C28.4478 34.9623 28.9224 34.6967 29.2902 34.3123L30.8571 32.6824L37.0175 35.6516H37.0179C37.2207 35.7549 37.363 35.9473 37.4019 36.1715C37.4413 36.3957 37.3729 36.6251 37.2171 36.7913L35.8779 38.1305C34.7501 39.2606 33.3214 40.0438 31.7615 40.386C30.2021 40.7283 28.5766 40.6162 27.0791 40.0625C23.8496 38.8536 20.9175 36.9669 18.4795 34.5285C16.041 32.0905 14.1544 29.1583 12.9455 25.9289C12.3878 24.4326 12.2713 22.8075 12.6096 21.2469C12.9479 19.6862 13.727 18.2551 14.8548 17.1241L14.855 17.124Z" fill="black"/>
<path d="M33.2449 21.1875C33.6174 21.1946 33.9776 21.0555 34.2479 20.7999L36.9777 18.0701C37.535 17.5132 37.535 16.61 36.9777 16.0527C36.4207 15.4958 35.5175 15.4958 34.9603 16.0527L32.2078 18.7599C31.7991 19.1673 31.6767 19.7811 31.8977 20.3142C32.1187 20.8472 32.6395 21.1943 33.2163 21.1931L33.2449 21.1875Z" fill="black"/>
<path d="M34.4303 25.4839C34.3882 26.269 34.99 26.9401 35.7751 26.9829L39.2571 27.1765H39.337C40.1241 27.1984 40.7796 26.5786 40.8019 25.7916C40.8238 25.0049 40.2036 24.3489 39.417 24.3271L35.935 24.1335C35.5558 24.1116 35.1841 24.242 34.9015 24.4956C34.6193 24.7492 34.4495 25.105 34.4304 25.4839L34.4303 25.4839Z" fill="black"/>
<path d="M27.4428 18.5772H27.5227C28.3078 18.5342 28.9097 17.8636 28.8676 17.0784L28.674 13.5965V13.5961C28.6299 12.8094 27.9561 12.2072 27.1694 12.2513C26.3827 12.2954 25.7805 12.9688 25.8245 13.7559L26.0181 17.2378C26.0634 17.9911 26.6883 18.5783 27.4428 18.5771L27.4428 18.5772Z" fill="black"/>
</svg>
