<svg width="63" height="42" viewBox="0 0 63 42" fill="none" xmlns="http://www.w3.org/2000/svg">
<path d="M56.4375 0H6.56246C2.94525 0 0 2.94525 0 6.56258V35.4376C0 39.0548 2.94525 42.0001 6.56246 42.0001H56.4374C60.0546 42.0001 62.9999 39.0548 62.9999 35.4376V6.56258C63 2.94525 60.0547 0 56.4375 0ZM60.375 35.4375C60.375 37.6084 58.6085 39.375 56.4375 39.375H6.56246C4.39154 39.375 2.62496 37.6084 2.62496 35.4375V6.56258C2.62496 4.39167 4.39154 2.62508 6.56246 2.62508H56.4374C58.6083 2.62508 60.3749 4.39167 60.3749 6.56258V35.4375H60.375Z" fill="black"/>
<path d="M61.6875 7.875H1.31254C0.588041 7.875 0 8.46304 0 9.18754V17.0625C0 17.787 0.588041 18.3751 1.31254 18.3751H61.6876C62.4121 18.3751 63.0001 17.787 63.0001 17.0625V9.18754C63 8.46304 62.412 7.875 61.6875 7.875ZM60.375 15.75H2.62496V10.5H60.3749V15.75H60.375Z" fill="black"/>
<path d="M24.9375 26.25H9.18754C8.46304 26.25 7.875 26.838 7.875 27.5625C7.875 28.287 8.46304 28.875 9.18754 28.875H24.9375C25.662 28.875 26.2501 28.2869 26.2501 27.5624C26.2501 26.8379 25.662 26.25 24.9375 26.25Z" fill="black"/>
<path d="M24.9375 31.5H9.18754C8.46304 31.5 7.875 32.088 7.875 32.8125C7.875 33.537 8.46304 34.1251 9.18754 34.1251H24.9375C25.662 34.1251 26.2501 33.537 26.2501 32.8125C26.25 32.088 25.662 31.5 24.9375 31.5Z" fill="black"/>
<path d="M51.1875 23.625H48.5625C46.3916 23.625 44.625 25.3916 44.625 27.5625V30.1875C44.625 32.3584 46.3916 34.125 48.5625 34.125H51.1875C53.3584 34.125 55.125 32.3584 55.125 30.1875V27.5625C55.125 25.3917 53.3584 23.625 51.1875 23.625ZM52.5 30.1876C52.5 30.9121 51.912 31.5001 51.1875 31.5001H48.5625C47.838 31.5001 47.25 30.9121 47.25 30.1876V27.5626C47.25 26.8381 47.838 26.2501 48.5625 26.2501H51.1875C51.912 26.2501 52.5 26.8381 52.5 27.5626V30.1876Z" fill="black"/>
</svg>
