<svg width="44" height="44" viewBox="0 0 44 44" fill="none" xmlns="http://www.w3.org/2000/svg">
<g clip-path="url(#clip0_123_238)">
<path d="M34.8333 0H9.16667C6.73641 0.00291107 4.40652 0.969617 2.68807 2.68807C0.969617 4.40652 0.00291107 6.73641 0 9.16667L0 34.8333C0.00291107 37.2636 0.969617 39.5935 2.68807 41.3119C4.40652 43.0304 6.73641 43.9971 9.16667 44H34.8333C37.2636 43.9971 39.5935 43.0304 41.3119 41.3119C43.0304 39.5935 43.9971 37.2636 44 34.8333V9.16667C43.9971 6.73641 43.0304 4.40652 41.3119 2.68807C39.5935 0.969617 37.2636 0.00291107 34.8333 0V0ZM9.16667 3.66667H34.8333C36.292 3.66667 37.691 4.24613 38.7224 5.27758C39.7539 6.30903 40.3333 7.70798 40.3333 9.16667V34.8333C40.3302 35.6501 40.1421 36.4555 39.7833 37.1892L22.9845 20.3903C22.1333 19.5389 21.1226 18.8634 20.0103 18.4026C18.898 17.9418 17.7058 17.7046 16.5018 17.7046C15.2978 17.7046 14.1057 17.9418 12.9933 18.4026C11.881 18.8634 10.8704 19.5389 10.0192 20.3903L3.66667 26.741V9.16667C3.66667 7.70798 4.24613 6.30903 5.27758 5.27758C6.30903 4.24613 7.70798 3.66667 9.16667 3.66667ZM9.16667 40.3333C7.70798 40.3333 6.30903 39.7539 5.27758 38.7224C4.24613 37.691 3.66667 36.292 3.66667 34.8333V31.9257L12.6097 22.9827C13.1204 22.4716 13.7269 22.0661 14.3944 21.7895C15.0619 21.5129 15.7774 21.3705 16.5 21.3705C17.2226 21.3705 17.9381 21.5129 18.6056 21.7895C19.2731 22.0661 19.8796 22.4716 20.3903 22.9827L37.1892 39.7833C36.4555 40.1421 35.6501 40.3302 34.8333 40.3333H9.16667Z" fill="white"/>
<path d="M29.3334 19.2501C30.6025 19.2501 31.8431 18.8738 32.8983 18.1687C33.9535 17.4636 34.776 16.4615 35.2616 15.289C35.7473 14.1165 35.8744 12.8263 35.6268 11.5816C35.3792 10.3369 34.7681 9.19354 33.8707 8.29615C32.9733 7.39876 31.83 6.78763 30.5852 6.54005C29.3405 6.29246 28.0504 6.41953 26.8779 6.90519C25.7054 7.39085 24.7032 8.21329 23.9982 9.26851C23.2931 10.3237 22.9167 11.5643 22.9167 12.8334C22.9167 14.5352 23.5928 16.1673 24.7961 17.3707C25.9995 18.574 27.6316 19.2501 29.3334 19.2501ZM29.3334 10.0834C29.8773 10.0834 30.409 10.2447 30.8612 10.5469C31.3135 10.8491 31.6659 11.2785 31.8741 11.781C32.0822 12.2835 32.1367 12.8365 32.0306 13.3699C31.9245 13.9034 31.6626 14.3934 31.278 14.778C30.8934 15.1626 30.4034 15.4245 29.8699 15.5306C29.3365 15.6367 28.7835 15.5822 28.281 15.3741C27.7785 15.1659 27.349 14.8135 27.0469 14.3612C26.7447 13.909 26.5834 13.3773 26.5834 12.8334C26.5834 12.1041 26.8731 11.4046 27.3889 10.8889C27.9046 10.3731 28.6041 10.0834 29.3334 10.0834Z" fill="white"/>
</g>
<defs>
<clipPath id="clip0_123_238">
<rect width="44" height="44" fill="white"/>
</clipPath>
</defs>
</svg>
