<svg width="37" height="33" viewBox="0 0 37 33" fill="none" xmlns="http://www.w3.org/2000/svg">
<path d="M25.7256 2.23648C25.3123 1.26476 24.435 0.583208 23.3765 0.409265C22.5283 0.264206 21.6944 0.467227 21.0055 0.974926C20.3166 1.48263 19.8814 2.2222 19.7655 3.0704C19.3088 6.47833 18.7723 7.5223 18.5693 7.81239C17.6485 9.09579 16.5464 9.4147 15.0163 9.85713C13.4792 10.3066 11.6736 10.8288 9.58545 12.4676V31.9214C11.623 32.6609 14.0665 32.9944 15.3644 32.9944H25.4281C27.8643 32.9944 29.8439 31.0149 29.8439 28.5786C29.8439 28.3756 29.8075 28.1799 29.7422 27.9914C31.2068 27.4622 32.251 26.0553 32.251 24.4169C32.251 23.8224 32.0407 23.2713 31.678 22.858C32.7875 22.1764 33.5198 20.951 33.5198 19.559C33.5198 19.24 33.4545 18.9353 33.3459 18.6598C34.8902 18.5002 36.1375 17.2966 36.2461 15.7884C36.3114 14.8892 35.9779 14.0046 35.3397 13.3594C34.7525 12.7722 33.9692 12.4456 33.1426 12.4456L24.2535 12.4453C24.8844 11.0748 25.8923 8.57338 26.1678 6.10803C26.3417 4.62893 26.1894 3.3237 25.7254 2.23607L25.7256 2.23648Z" fill="white"/>
<path d="M0.724983 32.995H7.41041C7.81645 32.995 8.13539 32.676 8.13539 32.27V11.7138C8.13539 11.3151 7.81644 10.9888 7.41041 10.9888L0.724983 10.9885C0.326227 10.9885 2.11328e-07 11.3148 2.11328e-07 11.7135V32.2697C-0.000303237 32.6757 0.326227 32.995 0.724983 32.995Z" fill="white"/>
</svg>
