<svg width="38" height="51" viewBox="0 0 38 51" fill="none" xmlns="http://www.w3.org/2000/svg">
<path fill-rule="evenodd" clip-rule="evenodd" d="M7.86457 22.0198H4.71875C3.8526 22.0198 3.14583 22.7245 3.14583 23.5928V45.6136C3.14583 46.4818 3.8526 47.1865 4.71875 47.1865H33.0312C33.8974 47.1865 34.6042 46.4818 34.6042 45.6136V23.5928C34.6042 22.7245 33.8974 22.0198 33.0312 22.0198H29.8854H7.86457ZM6.29166 18.874V12.5824C6.29166 5.64265 11.9353 -0.000976562 18.875 -0.000976562C25.8147 -0.000976562 31.4583 5.64265 31.4583 12.5824V18.874H33.0312C35.6318 18.874 37.75 20.9901 37.75 23.5928V45.6136C37.75 48.2162 35.6318 50.3323 33.0312 50.3323H4.71875C2.11819 50.3323 0 48.2162 0 45.6136V23.5928C0 20.9901 2.11819 18.874 4.71875 18.874H6.29166ZM28.3125 18.874V12.5824C28.3125 7.37915 24.0782 3.14486 18.875 3.14486C13.6718 3.14486 9.43749 7.37915 9.43749 12.5824V18.874H28.3125ZM17.3021 35.3459C15.7662 34.7226 14.6805 33.2146 14.6805 31.4574C14.6805 29.1441 16.5617 27.2629 18.875 27.2629C21.1882 27.2629 23.0694 29.1441 23.0694 31.4574C23.0694 33.2146 21.9838 34.7226 20.4479 35.3459V40.3705C20.4479 41.2388 19.7433 41.9435 18.875 41.9435C18.0068 41.9435 17.3021 41.2388 17.3021 40.3705V35.3459ZM18.875 30.4087C18.2982 30.4087 17.8264 30.8785 17.8264 31.4574C17.8264 32.0362 18.2982 32.506 18.875 32.506C19.4517 32.506 19.9236 32.0362 19.9236 31.4574C19.9236 30.8785 19.4517 30.4087 18.875 30.4087Z" fill="#7D7C81"/>
</svg>
