<svg width="175" height="123" viewBox="0 0 175 123" fill="none" xmlns="http://www.w3.org/2000/svg">
<path fill-rule="evenodd" clip-rule="evenodd" d="M125.379 38.216C125.379 58.8796 108.628 75.6308 87.9641 75.6308C84.91 75.6308 81.9414 75.2649 79.0997 74.5745V14.8461H74.8402L63.5581 24.7467L66.3211 28.0852L74.4948 20.9476V73.133C60.4865 67.7257 50.5493 54.1313 50.5493 38.216C50.5493 17.5523 67.3005 0.801147 87.9641 0.801147C99.7332 0.801147 110.233 6.23509 117.092 14.7309H116.169H109.492L111.91 18.8753H119.163V17.556C123.091 23.4761 125.379 30.5788 125.379 38.216ZM108.456 14.8461H85.8922C89.9215 18.9905 98.5557 19.1057 99.4767 18.9905C100.205 18.8995 100.357 18.5922 100.56 18.1828C100.614 18.0747 100.671 17.9595 100.743 17.8393C101.019 17.3788 101.702 17.3404 102.009 17.3788H109.953L108.456 14.8461ZM85.777 38.9066V17.0334C87.8031 18.3227 90.0749 19.2591 90.9575 19.566V33.0354C101.434 29.2363 110.528 36.1437 111.219 44.0872C111.91 52.0306 107.65 60.0892 97.2892 61.1253C89.0004 61.9542 84.3955 56.0215 83.1291 52.9516L87.734 51.1096C93.4902 60.6648 104.081 56.4053 106.039 50.0735C107.996 43.7418 105.233 38.331 98.7858 36.4891C93.6283 35.0155 87.9643 37.4868 85.777 38.9066Z" fill="url(#paint0_linear_136_61)"/>
<path d="M0.000244141 121.91V95.1179H9.03998C10.7843 95.1179 12.2364 95.4232 13.3963 96.0337C14.565 96.6442 15.4415 97.4771 16.0258 98.5324C16.6102 99.5876 16.9023 100.787 16.9023 102.13C16.9023 103.246 16.7148 104.201 16.3398 104.995C15.9648 105.789 15.4546 106.43 14.8092 106.918C14.1638 107.406 13.4443 107.76 12.6506 107.978V108.187C13.5141 108.248 14.3513 108.553 15.1624 109.103C15.9735 109.643 16.6407 110.402 17.164 111.379C17.6873 112.356 17.9489 113.524 17.9489 114.885C17.9489 116.237 17.648 117.445 17.0462 118.509C16.4445 119.564 15.52 120.397 14.2728 121.007C13.0344 121.609 11.4558 121.91 9.5371 121.91H0.000244141ZM2.4466 119.712H9.5371C11.6041 119.712 13.1303 119.254 14.1158 118.339C15.1101 117.423 15.6072 116.272 15.6072 114.885C15.6072 113.865 15.3586 112.94 14.8615 112.112C14.3731 111.274 13.6798 110.611 12.7815 110.123C11.8919 109.635 10.8453 109.391 9.64176 109.391H2.4466V119.712ZM2.4466 107.219H9.26238C10.3177 107.219 11.2421 107.001 12.0358 106.565C12.8294 106.129 13.4487 105.527 13.8934 104.759C14.3382 103.992 14.5606 103.115 14.5606 102.13C14.5606 100.708 14.0984 99.5528 13.1739 98.6632C12.2495 97.7649 10.8715 97.3157 9.03998 97.3157H2.4466V107.219Z" fill="#363435"/>
<path d="M31.5442 121.91V95.1179H33.9905V119.712H46.7587V121.91H31.5442Z" fill="#363435"/>
<path d="M101.329 121.91H93.4802V95.1179H101.8C104.356 95.1179 106.541 95.6499 108.355 96.7139C110.177 97.7779 111.573 99.3042 112.541 101.293C113.509 103.281 113.993 105.666 113.993 108.449C113.993 111.257 113.496 113.668 112.502 115.683C111.516 117.689 110.077 119.228 108.185 120.301C106.301 121.374 104.016 121.91 101.329 121.91ZM95.9266 119.712H101.186C103.488 119.712 105.415 119.259 106.968 118.352C108.52 117.445 109.685 116.15 110.461 114.466C111.237 112.783 111.625 110.777 111.625 108.449C111.616 106.137 111.233 104.149 110.474 102.483C109.724 100.817 108.608 99.5397 107.125 98.6501C105.651 97.7605 103.828 97.3157 101.657 97.3157H95.9266V119.712Z" fill="#363435"/>
<path d="M172.266 101.816C172.118 100.325 171.459 99.1386 170.29 98.2577C169.122 97.3769 167.652 96.9364 165.882 96.9364C164.635 96.9364 163.536 97.1501 162.585 97.5775C161.643 98.0048 160.902 98.5979 160.361 99.3566C159.829 100.107 159.563 100.961 159.563 101.921C159.563 102.627 159.716 103.246 160.021 103.778C160.326 104.31 160.736 104.768 161.251 105.152C161.774 105.527 162.35 105.85 162.978 106.12C163.614 106.39 164.255 106.617 164.901 106.8L167.726 107.611C168.581 107.847 169.436 108.148 170.29 108.514C171.145 108.88 171.926 109.343 172.632 109.901C173.347 110.45 173.919 111.126 174.346 111.929C174.782 112.722 175 113.677 175 114.794C175 116.224 174.629 117.51 173.888 118.653C173.147 119.795 172.083 120.702 170.696 121.374C169.309 122.037 167.648 122.368 165.712 122.368C163.889 122.368 162.306 122.067 160.963 121.465C159.62 120.855 158.565 120.013 157.797 118.941C157.03 117.868 156.598 116.625 156.502 115.212H159.014C159.101 116.267 159.45 117.161 160.06 117.894C160.671 118.627 161.464 119.185 162.441 119.568C163.418 119.944 164.508 120.131 165.712 120.131C167.046 120.131 168.232 119.909 169.27 119.464C170.317 119.01 171.136 118.382 171.73 117.58C172.331 116.769 172.632 115.827 172.632 114.754C172.632 113.847 172.397 113.088 171.926 112.478C171.455 111.859 170.796 111.34 169.95 110.921C169.113 110.503 168.141 110.132 167.033 109.809L163.828 108.867C161.726 108.239 160.095 107.372 158.935 106.264C157.775 105.156 157.195 103.744 157.195 102.025C157.195 100.586 157.579 99.3217 158.347 98.2316C159.123 97.1327 160.169 96.278 161.486 95.6675C162.812 95.0483 164.299 94.7386 165.947 94.7386C167.613 94.7386 169.087 95.0439 170.369 95.6544C171.651 96.2649 172.667 97.1065 173.417 98.1792C174.176 99.2433 174.581 100.456 174.634 101.816H172.266Z" fill="#363435"/>
<path d="M58.0328 121.91H54.8093L66.3216 94.8562H69.4299L81.1724 121.91H77.949L67.8182 97.7343L58.0328 121.91Z" fill="#363435"/>
<rect x="128.603" y="94.7411" width="17.2684" height="2.5327" fill="#363435"/>
<rect x="128.603" y="119.838" width="17.2684" height="2.5327" fill="#363435"/>
<rect x="128.603" y="106.714" width="16.1172" height="2.5327" fill="#363435"/>
<defs>
<linearGradient id="paint0_linear_136_61" x1="116.965" y1="75.6308" x2="59.5185" y2="12.0832" gradientUnits="userSpaceOnUse">
<stop stop-color="#1DCCA4"/>
<stop offset="1" stop-color="#81FFE2"/>
</linearGradient>
</defs>
</svg>
