<svg width="38" height="38" viewBox="0 0 38 38" fill="none" xmlns="http://www.w3.org/2000/svg">
<path d="M2.11111 4.22222H24.6297C25.384 4.22222 26.0808 3.81979 26.458 3.16666C26.835 2.51354 26.835 1.70867 26.458 1.05555C26.0807 0.40243 25.384 0 24.6297 0H2.11111C1.35683 0 0.660034 0.40243 0.282768 1.05555C-0.0942154 1.70868 -0.0942154 2.51355 0.282768 3.16666C0.660069 3.81979 1.35682 4.22222 2.11111 4.22222ZM0 19C0 18.4402 0.22242 17.9029 0.618256 17.5072C1.01409 17.1114 1.55133 16.8889 2.11108 16.8889H35.8889C36.6432 16.8889 37.34 17.2913 37.7173 17.9445C38.0942 18.5976 38.0942 19.4025 37.7173 20.0556C37.34 20.7087 36.6432 21.1111 35.8889 21.1111H2.11108C1.55126 21.1111 1.01402 20.8887 0.618256 20.4929C0.222492 20.097 0 19.5598 0 19.0001V19ZM0 35.8889C0 35.329 0.22242 34.7918 0.618256 34.396C1.01409 34.0003 1.55133 33.7778 2.11108 33.7778H24.6296C25.3839 33.7778 26.0807 34.1802 26.458 34.8333C26.835 35.4865 26.835 36.2913 26.458 36.9444C26.0807 37.5976 25.3839 38 24.6296 38H2.11108C1.55126 38 1.01402 37.7776 0.618256 37.3817C0.222492 36.9859 0 36.4487 0 35.8889V35.8889Z" fill="#636363"/>
</svg>
