<svg width="43" height="46" viewBox="0 0 43 46" fill="none" xmlns="http://www.w3.org/2000/svg">
<path d="M14.728 37.9803H17.9587C17.9587 40.2105 19.7668 42.0191 21.9975 42.0191C24.2282 42.0191 26.0363 40.2105 26.0363 37.9803H29.267C29.267 41.9949 26.0126 45.2499 21.9975 45.2499C17.9824 45.2499 14.728 41.9949 14.728 37.9803ZM42.9995 32.3245V33.1353C42.9995 34.9242 41.5526 36.3644 39.767 36.3644H4.22857C2.44299 36.3644 0.996094 34.9197 0.996094 33.1353V32.3245C0.996094 29.479 3.10276 27.1244 5.84293 26.7294V16.9779C5.84293 8.05349 13.0748 0.822754 21.9981 0.822754C30.9214 0.822754 38.1533 8.05464 38.1533 16.9779V26.7294C40.8967 27.1233 43.0001 29.4762 43.0001 32.3245H42.9995ZM39.7682 32.3245C39.7682 30.9846 38.6847 29.9028 37.3374 29.9028C36.0026 29.9028 34.9219 28.8136 34.9219 27.485V16.9778C34.9219 9.8395 29.1365 4.05393 21.9975 4.05393C14.8585 4.05393 9.0731 9.83834 9.0731 16.9778V27.485C9.0731 28.8192 7.98678 29.9028 6.65761 29.9028C5.31492 29.9028 4.22684 30.9885 4.22684 32.3245V33.1336H39.7668C39.7673 33.1336 39.7679 32.3245 39.7679 32.3245H39.7682Z" fill="#636363"/>
</svg>
