<svg width="51" height="49" viewBox="0 0 51 49" fill="none" xmlns="http://www.w3.org/2000/svg">
	<path d="M37.2474 12.9563C36.3169 8.95557 33.9489 5.43614 30.5934 3.06703C27.2379 0.697913 23.1289 -0.355727 19.0475 0.106384C14.966 0.568496 11.1966 2.51414 8.45575 5.5735C5.7149 8.63285 4.19368 12.5926 4.18124 16.7002C4.17818 19.3771 4.82484 22.0147 6.06571 24.3867C3.8067 25.5972 2.01703 27.528 0.98103 29.8722C-0.054969 32.2164 -0.277867 34.8395 0.347749 37.3249C0.973365 39.8103 2.41161 42.0153 4.43398 43.5897C6.45634 45.164 8.94682 46.0173 11.5097 46.0141H25.1198V41.8264H11.5097C9.72665 41.8317 8.00312 41.1851 6.66354 40.0083C5.32396 38.8315 4.46073 37.2056 4.23634 35.4367C4.01194 33.6678 4.44186 31.8779 5.44516 30.4038C6.44846 28.9298 7.95596 27.8733 9.68389 27.4333L12.6928 26.6564L10.8439 24.1585C9.23484 22.005 8.36653 19.3883 8.36895 16.7002C8.39283 13.53 9.61434 10.4861 11.7885 8.1789C13.9627 5.87168 16.9287 4.47172 20.0919 4.25979C23.255 4.04785 26.3813 5.03961 28.8438 7.03617C31.3063 9.03273 32.923 11.8865 33.3696 15.0251L33.579 16.6122L35.164 16.8216C37.9614 17.1882 40.5534 18.4873 42.5213 20.5089C44.4892 22.5305 45.7181 25.1566 46.0093 27.9628C46.3005 30.769 45.6371 33.5914 44.1263 35.974C42.6154 38.3567 40.3454 40.1603 37.6829 41.0936V45.4634C41.3144 44.5295 44.5268 42.4026 46.8045 39.424C49.0822 36.4455 50.2931 32.788 50.2429 29.0387C50.1926 25.2894 48.8842 21.6657 46.5275 18.7492C44.1708 15.8327 40.9026 13.7926 37.2474 12.9563V12.9563Z" fill="white"/>
	<path d="M38.2967 34.9312L41.2574 31.9705L34.3624 25.0755C33.5771 24.2904 32.5121 23.8494 31.4017 23.8494C30.2912 23.8494 29.2263 24.2904 28.441 25.0755L21.5459 31.9705L24.5066 34.9312L29.3078 30.13V48.1079H33.4955V30.13L38.2967 34.9312Z" fill="white"/>
	</svg>
	