<svg width="45" height="45" viewBox="0 0 45 45" fill="none" xmlns="http://www.w3.org/2000/svg">
<path d="M35.625 45H9.375C6.88951 44.997 4.50667 44.0083 2.74916 42.2508C0.991654 40.4933 0.00297723 38.1105 0 35.625L0 9.375C0.00297723 6.88951 0.991654 4.50667 2.74916 2.74916C4.50667 0.991654 6.88951 0.00297723 9.375 0L35.625 0C38.1105 0.00297723 40.4933 0.991654 42.2508 2.74916C44.0083 4.50667 44.997 6.88951 45 9.375V35.625C44.997 38.1105 44.0083 40.4933 42.2508 42.2508C40.4933 44.0083 38.1105 44.997 35.625 45ZM9.375 3.75C7.88316 3.75 6.45242 4.34263 5.39752 5.39752C4.34263 6.45242 3.75 7.88316 3.75 9.375V35.625C3.75 37.1168 4.34263 38.5476 5.39752 39.6025C6.45242 40.6574 7.88316 41.25 9.375 41.25H35.625C37.1168 41.25 38.5476 40.6574 39.6025 39.6025C40.6574 38.5476 41.25 37.1168 41.25 35.625V9.375C41.25 7.88316 40.6574 6.45242 39.6025 5.39752C38.5476 4.34263 37.1168 3.75 35.625 3.75H9.375ZM17.5163 31.8844C16.7346 31.8818 15.9675 31.6728 15.2925 31.2787C14.6256 30.8971 14.0722 30.3451 13.6887 29.6793C13.3052 29.0135 13.1055 28.2577 13.11 27.4894V17.5106C13.1094 16.7421 13.3108 15.987 13.6942 15.321C14.0776 14.655 14.6294 14.1015 15.2942 13.7161C15.9591 13.3307 16.7136 13.1269 17.482 13.1251C18.2505 13.1234 19.0059 13.3238 19.6725 13.7063L29.5688 18.6469C30.2562 19.018 30.8318 19.5661 31.2361 20.2346C31.6403 20.9031 31.8584 21.6675 31.8678 22.4486C31.8772 23.2297 31.6775 23.9991 31.2894 24.6771C30.9013 25.3551 30.3389 25.9169 29.6606 26.3044L19.5806 31.3425C18.952 31.7011 18.24 31.888 17.5163 31.8844ZM17.4694 16.8844C17.366 16.8843 17.2645 16.9115 17.175 16.9631C17.0778 17.0172 16.9971 17.0967 16.9416 17.1932C16.8861 17.2896 16.8579 17.3994 16.86 17.5106V27.4894C16.8606 27.599 16.8898 27.7065 16.9445 27.8015C16.9993 27.8964 17.0778 27.9755 17.1724 28.0309C17.267 28.0863 17.3743 28.1162 17.4839 28.1175C17.5935 28.1189 17.7016 28.0918 17.7975 28.0388L27.8775 22.9987C27.9526 22.94 28.0123 22.864 28.0515 22.7771C28.0906 22.6902 28.1082 22.5951 28.1025 22.5C28.1049 22.3885 28.0765 22.2785 28.0207 22.1819C27.9648 22.0854 27.8835 22.006 27.7856 21.9525L17.8969 17.0119C17.768 16.9328 17.6206 16.8888 17.4694 16.8844Z" fill="white"/>
</svg>
