<svg width="59" height="44" viewBox="0 0 59 44" fill="none" xmlns="http://www.w3.org/2000/svg">
<path d="M29.0169 38.9743C25.3092 38.9306 21.7089 38.2702 18.3075 36.7982C17.0743 36.2652 16.3622 36.472 15.4949 37.4109C13.8042 39.2448 11.9901 40.9634 10.2198 42.7258C9.9254 43.0162 9.62306 43.3146 9.27297 43.5294C8.69613 43.8835 8.09939 43.8437 7.61803 43.3385C7.17644 42.869 7.15655 42.3001 7.48277 41.767C7.69759 41.417 7.99198 41.1106 8.28239 40.8162C21.5498 27.5449 34.8132 14.2775 48.0846 1.01402C49.1906 -0.0919296 50.0578 -0.290841 50.6943 0.401372C51.299 1.0538 51.0882 1.86138 50.026 2.93153C48.1841 4.78141 46.3541 6.64322 44.4803 8.45729C43.8637 9.05403 43.9314 9.31261 44.6554 9.75022C49.4134 12.6265 53.6104 16.195 57.3897 20.2607C58.611 21.5735 58.6588 22.0867 57.4772 23.3518C51.3587 29.9079 44.4923 35.374 35.7282 38.0076C33.5482 38.664 31.3084 38.9982 29.0169 38.9743ZM38.9824 21.848C38.9784 23.125 38.7039 24.5055 38.2305 25.6035C35.8277 31.173 29.5023 33.3213 24.2073 30.3137C23.4275 29.8681 22.9501 29.9238 22.3653 30.5643C21.5021 31.5151 20.5831 32.4182 19.6402 33.2934C18.956 33.9299 18.9958 34.2601 19.9068 34.5824C24.991 36.3805 30.1428 36.9176 35.3662 35.2945C42.9885 32.9234 49.0195 28.1177 54.5532 22.576C55.138 21.9912 54.9232 21.5258 54.4299 21.0285C50.8455 17.4123 46.9429 14.2019 42.5549 11.6041C42.0019 11.2779 41.612 11.3097 41.1665 11.7712C40.0367 12.9408 38.8909 14.0984 37.7134 15.2203C37.1803 15.7295 37.1286 16.1592 37.5343 16.7917C38.513 18.3273 38.9705 20.03 38.9824 21.848ZM29.1602 29.0526C29.6137 28.985 30.103 28.9253 30.5844 28.8378C35.04 28.0342 37.6378 22.8147 35.593 18.7848C35.3423 18.2915 35.0838 17.8778 34.5149 18.4506C31.5988 21.3667 28.6828 24.2867 25.7627 27.1988C25.2973 27.6602 25.4405 27.9666 25.9577 28.2411C26.9483 28.7662 28.0343 28.8975 29.1602 29.0526Z" fill="#9AA1AE"/>
<path d="M28.3763 4.75746C31.722 4.7853 34.276 5.26269 36.7703 6.08221C37.6097 6.35671 38.2542 6.84603 37.9439 7.8207C37.6455 8.7516 36.8817 8.92665 36.0065 8.63226C28.5473 6.11006 21.7804 8.02359 15.3197 11.8586C11.063 14.3848 7.33936 17.5873 3.82658 21.0523C3.09459 21.7763 3.23382 22.2577 3.83056 22.942C6.2732 25.7546 8.97442 28.2768 12.0297 30.4171C12.2485 30.5682 12.4633 30.7194 12.6742 30.8825C13.3505 31.4156 13.6687 32.08 13.1118 32.8438C12.5628 33.5917 11.8387 33.544 11.1107 33.0507C7.86051 30.8587 4.9564 28.2768 2.37055 25.3369C1.69425 24.573 1.06569 23.7655 0.437126 22.9619C-0.0840221 22.2935 -0.195413 21.5655 0.413257 20.8972C7.01713 13.6448 14.4882 7.70533 24.2628 5.31441C25.8342 4.92454 27.4533 4.72563 28.3763 4.75746Z" fill="#9AA1AE"/>
<path d="M19.2781 21.7485C19.3537 16.2784 24.1793 11.7393 29.6294 12.0575C29.9676 12.0774 30.3018 12.157 30.6359 12.2127C31.5151 12.3639 32.0522 12.8651 31.8851 13.7721C31.718 14.6672 31.0258 14.9338 30.1625 14.8542C25.8382 14.4564 22.7789 16.8394 22.0748 21.1199C21.9793 21.6968 22.027 22.2418 22.1185 22.8067C22.2618 23.7018 21.9833 24.4497 21.0205 24.6089C20.1095 24.76 19.6242 24.1911 19.4929 23.3199C19.4094 22.7948 19.3457 22.2697 19.2781 21.7485Z" fill="#9AA1AE"/>
</svg>
